<?xml version="1.0" encoding="utf-8"?>
<!-- Generator: Adobe Illustrator 21.0.0, SVG Export Plug-In . SVG Version: 6.00 Build 0)  -->
<svg version="1.1" xmlns="http://www.w3.org/2000/svg" xmlns:xlink="http://www.w3.org/1999/xlink" x="0px" y="0px"
	 viewBox="0 0 32 32" style="enable-background:new 0 0 32 32;" xml:space="preserve">
<style type="text/css">
	.st0{display:none;}
	.st1{display:inline;}
	.st2{fill:#00FFFF;}
	.st3{fill:#FBB03B;}
	.st4{fill:#FF0000;}
	.st5{fill:#0000FF;}
	.st6{fill:#FF00FF;}
	.st7{fill:#FFFF00;}
	.st8{fill:#39B54A;}
	.st9{fill:#FFFFFF;}
	.st10{font-family:'Tandysoft';}
	.st11{font-size:16.9568px;}
</style>
<g id="Layer_1" class="st0">
	<g class="st1">
		<path d="M23.2,26.4l-0.9,2.1c-1.7-0.7-3.3-1.6-4.8-2.8C15.8,26.6,14,27,12,27c-3.1,0-5.7-1.1-7.7-3.3c-2-2.2-3-5-3-8.4
			c0-3.4,1-6.1,2.9-8.3c1.9-2.2,4.6-3.3,7.9-3.3c3.1,0,5.7,1.1,7.7,3.2c2,2.1,3,4.9,3,8.4c0,3.7-1.1,6.6-3.4,8.8
			C20.7,25.2,21.9,25.9,23.2,26.4z M17.1,22.6c1.8-1.6,2.6-4,2.6-7.2c0-2.8-0.7-5-2.1-6.7s-3.3-2.4-5.5-2.4C9.8,6.4,8,7.1,6.5,8.7
			s-2.1,3.8-2.1,6.8c0,2.9,0.7,5.1,2.1,6.7s3.3,2.4,5.5,2.4c1.1,0,2.1-0.2,3-0.6c-1-0.6-2-1.1-2.9-1.3l0.7-2.2
			C14.7,21,16.1,21.7,17.1,22.6z"/>
	</g>
	<rect x="25" y="26" class="st1" width="6" height="2"/>
</g>
<g id="Layer_2">
	<path class="st2" d="M27.4,32H4.6C2.1,32,0,29.9,0,27.4V4.6C0,2.1,2.1,0,4.6,0h22.9C29.9,0,32,2.1,32,4.6v22.9
		C32,29.9,29.9,32,27.4,32z"/>
	<g id="XMLID_1_">
		<g>
			<path class="st3" d="M25.5,12c0.2,1.1,0.4,2.3,0.4,3.5c0,2.4-0.5,4.8-1.5,6.9l-2-1c0.9-1.8,1.3-3.8,1.3-5.9c0-1-0.1-2-0.3-3
				L25.5,12z"/>
			<path class="st4" d="M24.4,8.7l-2,0.9c-1.4-2.9-3.7-5-6.4-5.9l0.7-2.1C19.9,2.7,22.8,5.3,24.4,8.7z"/>
			<path class="st5" d="M22.4,25.4C20,28.3,16.5,30,12.9,30l-0.1,0l0.1-0.9v-1.3h0c2.9,0,5.7-1.3,7.7-3.8L22.4,25.4z"/>
			<path class="st6" d="M12.9,1L13,3.2h-0.1c-3,0-5.7,1.4-7.8,3.8L3.4,5.6C5.9,2.7,9.4,1,12.9,1z"/>
			<path class="st7" d="M10,27.3l-0.7,2.1c-3.3-1.1-6.2-3.7-7.8-7.1l2-1C4.9,24.2,7.3,26.4,10,27.3z"/>
			<path class="st8" d="M1.5,8.6l2,1c-0.9,1.8-1.3,3.8-1.3,5.9c0,1,0.1,2,0.3,3L0.4,19C0.1,17.9,0,16.7,0,15.5
				C0,13.1,0.5,10.7,1.5,8.6z"/>
		</g>
	</g>
	<path d="M30.5,28.9c-0.7-0.1-1.6-0.6-3-1.3l1-1.8c1.5,0.8,2.2,1.1,2.5,1.1L30.5,28.9z M26.6,27.1c-0.8-0.5-1.7-1-2.6-1.6l1.1-1.7
		c0.9,0.5,1.7,1.1,2.5,1.5L26.6,27.1z M23.1,25c-0.9-0.5-1.7-1.1-2.5-1.6l1.1-1.7c0.8,0.5,1.7,1.1,2.5,1.6L23.1,25z M19.7,22.8
		c-1-0.6-1.9-1.2-2.5-1.6l1-1.7c0.6,0.4,1.5,1,2.6,1.6L19.7,22.8z M16.4,20.8c-0.4-0.2-0.8-0.3-1.1-0.3c-0.4,0-0.6,0.2-0.7,0.2
		l-1.4-1.4c0.1-0.1,0.8-0.7,2-0.7c0.6,0,1.3,0.2,1.9,0.5L16.4,20.8z"/>
	<text transform="matrix(1.3458 0 0 1 5.6294 18.54)" class="st9 st10 st11">w</text>
</g>
</svg>
